<svg width="553" height="307" viewBox="0 0 553 307" fill="none" xmlns="http://www.w3.org/2000/svg">
<path d="M30.96 84.52L36.96 85L34.56 201.64C34.4 209.96 35.92 216.12 39.12 220.12C42.32 224.12 47.52 226.12 54.72 226.12C55.2 226.12 55.44 226.6 55.44 227.56C55.44 228.52 55.2 229 54.72 229C50.4 229 47.04 228.92 44.64 228.76L31.44 228.52L18.24 228.76C16 228.92 12.72 229 8.4 229C8.08 229 7.92 228.52 7.92 227.56C7.92 226.6 8.08 226.12 8.4 226.12C21.68 226.12 28.4 217.96 28.56 201.64L30.96 84.52ZM196.56 226.12C196.88 226.12 197.04 226.6 197.04 227.56C197.04 228.52 196.88 229 196.56 229C191.28 229 187.12 228.92 184.08 228.76L167.28 228.52L151.2 228.76C148.48 228.92 144.72 229 139.92 229C139.6 229 139.44 228.52 139.44 227.56C139.44 226.6 139.6 226.12 139.92 226.12C145.36 226.12 149.36 225.72 151.92 224.92C154.48 223.96 156.16 222.36 156.96 220.12C157.76 217.88 158 214.36 157.68 209.56L152.88 96.52L162.24 83.08L100.08 227.32C99.76 227.96 99.12 228.28 98.16 228.28C97.2 228.28 96.56 227.96 96.24 227.32L33.6 98.92C30.72 93 27.36 88.68 23.52 85.96C19.68 83.24 15.2 81.88 10.08 81.88C9.76 81.88 9.6 81.4 9.6 80.44C9.6 79.48 9.76 79 10.08 79L19.68 79.24C21.6 79.4 24.08 79.48 27.12 79.48C30.64 79.48 33.52 79.4 35.76 79.24C38 79.08 39.76 79 41.04 79C43.12 79 44.8 79.72 46.08 81.16C47.36 82.6 49.36 86.04 52.08 91.48L106.56 202.12L97.68 217.48L155.52 85C157.12 81 159.52 79 162.72 79C163.68 79 164.96 79.08 166.56 79.24C168.16 79.4 170.24 79.48 172.8 79.48L185.04 79.24C186.96 79.08 189.76 79 193.44 79C193.76 79 193.92 79.48 193.92 80.44C193.92 81.4 193.76 81.88 193.44 81.88C185.44 81.88 179.76 83.16 176.4 85.72C173.04 88.28 171.44 92.76 171.6 99.16L176.64 209.56C176.96 214.52 177.6 218.12 178.56 220.36C179.52 222.6 181.28 224.12 183.84 224.92C186.56 225.72 190.8 226.12 196.56 226.12ZM238.991 105.88C238.991 111.96 240.511 117.32 243.551 121.96C246.591 126.44 250.271 130.36 254.591 133.72C258.911 136.92 264.911 140.84 272.591 145.48C280.591 150.44 286.911 154.76 291.551 158.44C296.351 161.96 300.431 166.36 303.791 171.64C307.151 176.92 308.831 183.16 308.831 190.36C308.831 198.2 306.751 205.32 302.591 211.72C298.591 217.96 292.751 222.92 285.071 226.6C277.551 230.12 268.751 231.88 258.671 231.88C252.271 231.88 245.951 231.08 239.711 229.48C233.471 228.04 228.031 225.88 223.391 223C222.591 222.52 222.031 221.96 221.711 221.32C221.391 220.68 221.231 219.72 221.231 218.44L218.831 184.12C218.671 183.48 218.991 183.08 219.791 182.92C220.751 182.76 221.311 183 221.471 183.64C225.311 195.8 230.671 206.12 237.551 214.6C244.431 223.08 253.391 227.32 264.431 227.32C271.951 227.32 278.271 225.32 283.391 221.32C288.511 217.16 291.071 210.44 291.071 201.16C291.071 194.12 289.471 187.96 286.271 182.68C283.071 177.4 279.151 173 274.511 169.48C269.871 165.8 263.711 161.64 256.031 157C248.511 152.2 242.511 148.12 238.031 144.76C233.711 141.24 230.031 137 226.991 132.04C223.951 126.92 222.431 121 222.431 114.28C222.431 106.12 224.591 99.16 228.911 93.4C233.391 87.64 239.151 83.4 246.191 80.68C253.391 77.8 260.911 76.36 268.751 76.36C279.311 76.36 288.991 78.2 297.791 81.88C300.191 83 301.391 84.44 301.391 86.2L302.591 116.2C302.591 116.84 302.111 117.24 301.151 117.4C300.351 117.4 299.871 117.08 299.711 116.44C297.951 107.8 294.191 99.64 288.431 91.96C282.831 84.28 274.751 80.44 264.191 80.44C256.191 80.44 249.951 82.84 245.471 87.64C241.151 92.44 238.991 98.52 238.991 105.88ZM421.637 76.36C430.917 76.36 439.077 77.08 446.117 78.52C453.317 79.8 460.037 81.96 466.277 85C467.397 85.48 468.117 86.04 468.437 86.68C468.757 87.16 468.997 88.36 469.157 90.28L472.277 120.28C472.277 120.76 471.797 121.08 470.837 121.24C470.037 121.4 469.557 121.16 469.397 120.52C461.237 93.8 444.757 80.44 419.957 80.44C407.317 80.44 396.117 83.4 386.357 89.32C376.597 95.24 368.997 103.64 363.557 114.52C358.277 125.4 355.637 138.12 355.637 152.68C355.637 166.92 358.517 179.8 364.277 191.32C370.197 202.68 378.117 211.64 388.037 218.2C398.117 224.6 409.157 227.8 421.157 227.8C433.637 227.8 443.877 224.68 451.877 218.44C459.877 212.04 466.357 202.2 471.317 188.92C471.477 188.6 471.877 188.44 472.517 188.44C472.837 188.44 473.157 188.6 473.477 188.92C473.957 189.08 474.197 189.24 474.197 189.4L471.557 216.76C471.397 218.68 471.157 219.88 470.837 220.36C470.517 220.84 469.717 221.4 468.437 222.04C460.437 225.72 452.757 228.28 445.397 229.72C438.037 231.32 429.957 232.12 421.157 232.12C404.197 232.12 389.077 228.84 375.797 222.28C362.517 215.56 352.117 206.28 344.597 194.44C337.237 182.6 333.557 169 333.557 153.64C333.557 138.6 337.317 125.24 344.837 113.56C352.517 101.72 363.077 92.6 376.517 86.2C389.957 79.64 404.997 76.36 421.637 76.36Z" fill="#BEBEBE"/>
<path d="M37.96 77.52L43.96 78L41.56 194.64C41.4 202.96 42.92 209.12 46.12 213.12C49.32 217.12 54.52 219.12 61.72 219.12C62.2 219.12 62.44 219.6 62.44 220.56C62.44 221.52 62.2 222 61.72 222C57.4 222 54.04 221.92 51.64 221.76L38.44 221.52L25.24 221.76C23 221.92 19.72 222 15.4 222C15.08 222 14.92 221.52 14.92 220.56C14.92 219.6 15.08 219.12 15.4 219.12C28.68 219.12 35.4 210.96 35.56 194.64L37.96 77.52ZM203.56 219.12C203.88 219.12 204.04 219.6 204.04 220.56C204.04 221.52 203.88 222 203.56 222C198.28 222 194.12 221.92 191.08 221.76L174.28 221.52L158.2 221.76C155.48 221.92 151.72 222 146.92 222C146.6 222 146.44 221.52 146.44 220.56C146.44 219.6 146.6 219.12 146.92 219.12C152.36 219.12 156.36 218.72 158.92 217.92C161.48 216.96 163.16 215.36 163.96 213.12C164.76 210.88 165 207.36 164.68 202.56L159.88 89.52L169.24 76.08L107.08 220.32C106.76 220.96 106.12 221.28 105.16 221.28C104.2 221.28 103.56 220.96 103.24 220.32L40.6 91.92C37.72 86 34.36 81.68 30.52 78.96C26.68 76.24 22.2 74.88 17.08 74.88C16.76 74.88 16.6 74.4 16.6 73.44C16.6 72.48 16.76 72 17.08 72L26.68 72.24C28.6 72.4 31.08 72.48 34.12 72.48C37.64 72.48 40.52 72.4 42.76 72.24C45 72.08 46.76 72 48.04 72C50.12 72 51.8 72.72 53.08 74.16C54.36 75.6 56.36 79.04 59.08 84.48L113.56 195.12L104.68 210.48L162.52 78C164.12 74 166.52 72 169.72 72C170.68 72 171.96 72.08 173.56 72.24C175.16 72.4 177.24 72.48 179.8 72.48L192.04 72.24C193.96 72.08 196.76 72 200.44 72C200.76 72 200.92 72.48 200.92 73.44C200.92 74.4 200.76 74.88 200.44 74.88C192.44 74.88 186.76 76.16 183.4 78.72C180.04 81.28 178.44 85.76 178.6 92.16L183.64 202.56C183.96 207.52 184.6 211.12 185.56 213.36C186.52 215.6 188.28 217.12 190.84 217.92C193.56 218.72 197.8 219.12 203.56 219.12ZM245.991 98.88C245.991 104.96 247.511 110.32 250.551 114.96C253.591 119.44 257.271 123.36 261.591 126.72C265.911 129.92 271.911 133.84 279.591 138.48C287.591 143.44 293.911 147.76 298.551 151.44C303.351 154.96 307.431 159.36 310.791 164.64C314.151 169.92 315.831 176.16 315.831 183.36C315.831 191.2 313.751 198.32 309.591 204.72C305.591 210.96 299.751 215.92 292.071 219.6C284.551 223.12 275.751 224.88 265.671 224.88C259.271 224.88 252.951 224.08 246.711 222.48C240.471 221.04 235.031 218.88 230.391 216C229.591 215.52 229.031 214.96 228.711 214.32C228.391 213.68 228.231 212.72 228.231 211.44L225.831 177.12C225.671 176.48 225.991 176.08 226.791 175.92C227.751 175.76 228.311 176 228.471 176.64C232.311 188.8 237.671 199.12 244.551 207.6C251.431 216.08 260.391 220.32 271.431 220.32C278.951 220.32 285.271 218.32 290.391 214.32C295.511 210.16 298.071 203.44 298.071 194.16C298.071 187.12 296.471 180.96 293.271 175.68C290.071 170.4 286.151 166 281.511 162.48C276.871 158.8 270.711 154.64 263.031 150C255.511 145.2 249.511 141.12 245.031 137.76C240.711 134.24 237.031 130 233.991 125.04C230.951 119.92 229.431 114 229.431 107.28C229.431 99.12 231.591 92.16 235.911 86.4C240.391 80.64 246.151 76.4 253.191 73.68C260.391 70.8 267.911 69.36 275.751 69.36C286.311 69.36 295.991 71.2 304.791 74.88C307.191 76 308.391 77.44 308.391 79.2L309.591 109.2C309.591 109.84 309.111 110.24 308.151 110.4C307.351 110.4 306.871 110.08 306.711 109.44C304.951 100.8 301.191 92.64 295.431 84.96C289.831 77.28 281.751 73.44 271.191 73.44C263.191 73.44 256.951 75.84 252.471 80.64C248.151 85.44 245.991 91.52 245.991 98.88ZM428.637 69.36C437.917 69.36 446.077 70.08 453.117 71.52C460.317 72.8 467.037 74.96 473.277 78C474.397 78.48 475.117 79.04 475.437 79.68C475.757 80.16 475.997 81.36 476.157 83.28L479.277 113.28C479.277 113.76 478.797 114.08 477.837 114.24C477.037 114.4 476.557 114.16 476.397 113.52C468.237 86.8 451.757 73.44 426.957 73.44C414.317 73.44 403.117 76.4 393.357 82.32C383.597 88.24 375.997 96.64 370.557 107.52C365.277 118.4 362.637 131.12 362.637 145.68C362.637 159.92 365.517 172.8 371.277 184.32C377.197 195.68 385.117 204.64 395.037 211.2C405.117 217.6 416.157 220.8 428.157 220.8C440.637 220.8 450.877 217.68 458.877 211.44C466.877 205.04 473.357 195.2 478.317 181.92C478.477 181.6 478.877 181.44 479.517 181.44C479.837 181.44 480.157 181.6 480.477 181.92C480.957 182.08 481.197 182.24 481.197 182.4L478.557 209.76C478.397 211.68 478.157 212.88 477.837 213.36C477.517 213.84 476.717 214.4 475.437 215.04C467.437 218.72 459.757 221.28 452.397 222.72C445.037 224.32 436.957 225.12 428.157 225.12C411.197 225.12 396.077 221.84 382.797 215.28C369.517 208.56 359.117 199.28 351.597 187.44C344.237 175.6 340.557 162 340.557 146.64C340.557 131.6 344.317 118.24 351.837 106.56C359.517 94.72 370.077 85.6 383.517 79.2C396.957 72.64 411.997 69.36 428.637 69.36Z" fill="#AF9549"/>
</svg>
